# xmcd
#
# Track frame offsets:
# 150
# 15912
# 29017
# 43180
# 62113
# 81538
#
# Disc length: 1259 seconds
#
# Revision: 0
# Processed by: cddbd v1.5.2PL0 Copyright (c) Steve Scherf et al.
# Submitted via: Audion 3.0.2 (http://www.panic.com/audion/)
#
DISCID=4b04e906
DTITLE=iroiro - renshukyoku
DYEAR=1900
DGENRE=
TTITLE0=Born to be wild
TTITLE1=Cecilia
TTITLE2=ob-la-di,ob-ra-da
TTITLE3=Will you love me tomorrow?
TTITLE4=You're so vain
TTITLE5=byebye love
EXTD=
EXTT0=
EXTT1=
EXTT2=
EXTT3=
EXTT4=
EXTT5=
PLAYORDER=
